<svg width="59" height="64" viewBox="0 0 59 64" fill="none" xmlns="http://www.w3.org/2000/svg">
<path d="M58.1097 51.6848C58.1097 58.4862 46.4678 63.9999 32.1069 63.9999C17.7459 63.9999 6.10406 58.4862 6.10406 51.6848C6.10406 44.8833 17.7459 39.3697 32.1069 39.3697C46.4678 39.3697 58.1097 44.8833 58.1097 51.6848Z" fill="#22137B"/>
<path d="M58.1097 50.9604C58.1097 57.7618 46.4678 63.2755 32.1069 63.2755C17.7459 63.2755 6.10406 57.7618 6.10406 50.9604C6.10406 44.1589 17.7459 38.6453 32.1069 38.6453C46.4678 38.6453 58.1097 44.1589 58.1097 50.9604Z" fill="#22137B"/>
<path d="M58.1097 50.236C58.1097 57.0374 46.4678 62.5511 32.1069 62.5511C17.7459 62.5511 6.10406 57.0374 6.10406 50.236C6.10406 43.4345 17.7459 37.9208 32.1069 37.9208C46.4678 37.9208 58.1097 43.4345 58.1097 50.236Z" fill="#22137B"/>
<path d="M58.1097 49.5115C58.1097 56.313 46.4678 61.8267 32.1069 61.8267C17.7459 61.8267 6.10406 56.313 6.10406 49.5115C6.10406 42.7101 17.7459 37.1964 32.1069 37.1964C46.4678 37.1964 58.1097 42.7101 58.1097 49.5115Z" fill="#22137B"/>
<path d="M58.1097 48.7871C58.1097 55.5886 46.4678 61.1022 32.1069 61.1022C17.7459 61.1022 6.10406 55.5886 6.10406 48.7871C6.10406 41.9857 17.7459 36.472 32.1069 36.472C46.4678 36.472 58.1097 41.9857 58.1097 48.7871Z" fill="#22137B"/>
<path d="M58.1097 48.0627C58.1097 54.8642 46.4678 60.3778 32.1069 60.3778C17.7459 60.3778 6.10406 54.8642 6.10406 48.0627C6.10406 41.2612 17.7459 35.7476 32.1069 35.7476C46.4678 35.7476 58.1097 41.2612 58.1097 48.0627Z" fill="#22137B"/>
<path d="M58.1097 47.3383C58.1097 54.1397 46.4678 59.6534 32.1069 59.6534C17.7459 59.6534 6.10406 54.1397 6.10406 47.3383C6.10406 40.5368 17.7459 35.0232 32.1069 35.0232C46.4678 35.0232 58.1097 40.5368 58.1097 47.3383Z" fill="#22137B"/>
<path d="M58.1097 46.6139C58.1097 53.4153 46.4678 58.929 32.1069 58.929C17.7459 58.929 6.10406 53.4153 6.10406 46.6139C6.10406 39.8124 17.7459 34.2987 32.1069 34.2987C46.4678 34.2987 58.1097 39.8124 58.1097 46.6139Z" fill="#22137B"/>
<path d="M58.1097 45.8894C58.1097 52.6909 46.4678 58.2046 32.1069 58.2046C17.7459 58.2046 6.10406 52.6909 6.10406 45.8894C6.10406 39.088 17.7459 33.5743 32.1069 33.5743C46.4678 33.5743 58.1097 39.088 58.1097 45.8894Z" fill="#22137B"/>
<path d="M58.1097 45.165C58.1097 51.9665 46.4678 57.4801 32.1069 57.4801C17.7459 57.4801 6.10406 51.9665 6.10406 45.165C6.10406 38.3636 17.7459 32.8499 32.1069 32.8499C46.4678 32.8499 58.1097 38.3636 58.1097 45.165Z" fill="#22137B"/>
<path d="M58.1097 44.4406C58.1097 51.2421 46.4678 56.7557 32.1069 56.7557C17.7459 56.7557 6.10406 51.2421 6.10406 44.4406C6.10406 37.6392 17.7459 32.1255 32.1069 32.1255C46.4678 32.1255 58.1097 37.6392 58.1097 44.4406Z" fill="#22137B"/>
<path d="M58.1097 49.6848C58.1097 56.4862 46.4678 61.9999 32.1069 61.9999C17.7459 61.9999 6.10406 56.4862 6.10406 49.6848C6.10406 42.8833 17.7459 37.3697 32.1069 37.3697C46.4678 37.3697 58.1097 42.8833 58.1097 49.6848Z" fill="#836FFD"/>
<path d="M58.1097 48.9604C58.1097 55.7618 46.4678 61.2755 32.1069 61.2755C17.7459 61.2755 6.10406 55.7618 6.10406 48.9604C6.10406 42.1589 17.7459 36.6453 32.1069 36.6453C46.4678 36.6453 58.1097 42.1589 58.1097 48.9604Z" fill="#836FFD"/>
<path d="M58.1097 48.236C58.1097 55.0374 46.4678 60.5511 32.1069 60.5511C17.7459 60.5511 6.10406 55.0374 6.10406 48.236C6.10406 41.4345 17.7459 35.9208 32.1069 35.9208C46.4678 35.9208 58.1097 41.4345 58.1097 48.236Z" fill="#836FFD"/>
<path d="M58.1097 47.5115C58.1097 54.313 46.4678 59.8267 32.1069 59.8267C17.7459 59.8267 6.10406 54.313 6.10406 47.5115C6.10406 40.7101 17.7459 35.1964 32.1069 35.1964C46.4678 35.1964 58.1097 40.7101 58.1097 47.5115Z" fill="#836FFD"/>
<path d="M58.1097 46.7871C58.1097 53.5886 46.4678 59.1022 32.1069 59.1022C17.7459 59.1022 6.10406 53.5886 6.10406 46.7871C6.10406 39.9857 17.7459 34.472 32.1069 34.472C46.4678 34.472 58.1097 39.9857 58.1097 46.7871Z" fill="#836FFD"/>
<path d="M58.1097 46.0627C58.1097 52.8642 46.4678 58.3778 32.1069 58.3778C17.7459 58.3778 6.10406 52.8642 6.10406 46.0627C6.10406 39.2612 17.7459 33.7476 32.1069 33.7476C46.4678 33.7476 58.1097 39.2612 58.1097 46.0627Z" fill="#836FFD"/>
<path d="M58.1097 45.3383C58.1097 52.1397 46.4678 57.6534 32.1069 57.6534C17.7459 57.6534 6.10406 52.1397 6.10406 45.3383C6.10406 38.5368 17.7459 33.0232 32.1069 33.0232C46.4678 33.0232 58.1097 38.5368 58.1097 45.3383Z" fill="#836FFD"/>
<path d="M58.1097 44.6139C58.1097 51.4153 46.4678 56.929 32.1069 56.929C17.7459 56.929 6.10406 51.4153 6.10406 44.6139C6.10406 37.8124 17.7459 32.2987 32.1069 32.2987C46.4678 32.2987 58.1097 37.8124 58.1097 44.6139Z" fill="#836FFD"/>
<path d="M58.1097 43.8894C58.1097 50.6909 46.4678 56.2046 32.1069 56.2046C17.7459 56.2046 6.10406 50.6909 6.10406 43.8894C6.10406 37.088 17.7459 31.5743 32.1069 31.5743C46.4678 31.5743 58.1097 37.088 58.1097 43.8894Z" fill="#836FFD"/>
<path d="M58.1097 43.165C58.1097 49.9665 46.4678 55.4801 32.1069 55.4801C17.7459 55.4801 6.10406 49.9665 6.10406 43.165C6.10406 36.3636 17.7459 30.8499 32.1069 30.8499C46.4678 30.8499 58.1097 36.3636 58.1097 43.165Z" fill="#836FFD"/>
<path d="M58.1097 42.4406C58.1097 49.2421 46.4678 54.7557 32.1069 54.7557C17.7459 54.7557 6.10406 49.2421 6.10406 42.4406C6.10406 35.6392 17.7459 30.1255 32.1069 30.1255C46.4678 30.1255 58.1097 35.6392 58.1097 42.4406Z" fill="#836FFD"/>
<path d="M58.1097 41.8687C58.1097 48.3543 46.4678 53.6119 32.1069 53.6119C17.7459 53.6119 6.10406 48.3543 6.10406 41.8687C6.10406 35.3831 17.7459 30.1255 32.1069 30.1255C46.4678 30.1255 58.1097 35.3831 58.1097 41.8687Z" fill="white"/>
<path d="M37.9785 43.99C37.9785 44.6131 37.5806 45.14 36.785 45.5708C36.0035 45.9939 34.945 46.267 33.6094 46.3901V47.0478C33.6094 47.2555 33.4886 47.4209 33.2471 47.544C33.0198 47.6748 32.7143 47.7402 32.3307 47.7402C31.9612 47.7402 31.6558 47.6748 31.4142 47.544C31.1727 47.4209 31.0519 47.2555 31.0519 47.0478V46.4247C30.2704 46.3863 29.5103 46.2978 28.7715 46.1593C28.0468 46.0209 27.4075 45.8439 26.8533 45.6285C26.626 45.5516 26.4626 45.467 26.3631 45.3747C26.2779 45.2747 26.2353 45.1516 26.2353 45.0054C26.2353 44.8131 26.3418 44.6439 26.555 44.4977C26.7823 44.3515 27.038 44.2785 27.3222 44.2785C27.5922 44.2785 27.9261 44.34 28.3239 44.4631C28.9775 44.6708 29.5955 44.8246 30.1781 44.9246C30.7748 45.017 31.3929 45.0631 32.0323 45.0631C32.8848 45.0631 33.5384 44.9785 33.993 44.8093C34.4477 44.6323 34.675 44.3862 34.675 44.0708C34.675 43.8784 34.54 43.7207 34.2701 43.5977C34.0143 43.4746 33.6946 43.3784 33.311 43.3092C32.9274 43.2399 32.3733 43.1515 31.6486 43.0438C30.5972 42.8976 29.7305 42.7515 29.0485 42.6053C28.3665 42.4591 27.7769 42.2283 27.2796 41.9129C26.7965 41.5975 26.555 41.1745 26.555 40.6437C26.555 40.0205 26.9599 39.4859 27.7698 39.0397C28.5938 38.5935 29.6666 38.3089 30.988 38.1858V37.5281C30.988 37.3204 31.1087 37.155 31.3503 37.0319C31.5918 36.9012 31.8973 36.8358 32.2667 36.8358C32.6503 36.8358 32.9558 36.9012 33.1832 37.0319C33.4247 37.155 33.5455 37.3204 33.5455 37.5281V38.1628C34.8242 38.2551 36.0248 38.5166 37.1473 38.9474C37.3604 39.0243 37.5096 39.1128 37.5948 39.2128C37.6943 39.3128 37.744 39.4321 37.744 39.5705C37.744 39.7628 37.6304 39.9321 37.403 40.0782C37.1899 40.2244 36.9413 40.2975 36.6571 40.2975C36.5008 40.2975 36.3516 40.2859 36.2095 40.2629C36.0817 40.2398 35.8969 40.1898 35.6554 40.1129C35.0729 39.9128 34.5472 39.7628 34.0783 39.6628C33.6236 39.5628 33.0624 39.5128 32.3946 39.5128C31.6273 39.5128 31.0093 39.6051 30.5404 39.7898C30.0857 39.9744 29.8584 40.2206 29.8584 40.5283C29.8584 40.7437 29.9934 40.9206 30.2633 41.0591C30.5333 41.1898 30.8743 41.2937 31.2863 41.3706C31.6984 41.4475 32.2738 41.536 33.0126 41.636C34.0499 41.7745 34.8953 41.9168 35.5488 42.063C36.2166 42.2014 36.785 42.4284 37.2538 42.7438C37.7369 43.0515 37.9785 43.4669 37.9785 43.99Z" fill="#5236FF"/>
<path d="M58.1097 36.2639C58.1097 43.0653 46.4678 48.579 32.1069 48.579C17.7459 48.579 6.10406 43.0653 6.10406 36.2639C6.10406 29.4624 17.7459 23.9488 32.1069 23.9488C46.4678 23.9488 58.1097 29.4624 58.1097 36.2639Z" fill="#836FFD"/>
<path d="M58.1097 35.5395C58.1097 42.3409 46.4678 47.8546 32.1069 47.8546C17.7459 47.8546 6.10406 42.3409 6.10406 35.5395C6.10406 28.738 17.7459 23.2244 32.1069 23.2244C46.4678 23.2244 58.1097 28.738 58.1097 35.5395Z" fill="#836FFD"/>
<path d="M58.1097 34.8151C58.1097 41.6165 46.4678 47.1302 32.1069 47.1302C17.7459 47.1302 6.10406 41.6165 6.10406 34.8151C6.10406 28.0136 17.7459 22.4999 32.1069 22.4999C46.4678 22.4999 58.1097 28.0136 58.1097 34.8151Z" fill="#836FFD"/>
<path d="M58.1097 34.0906C58.1097 40.8921 46.4678 46.4058 32.1069 46.4058C17.7459 46.4058 6.10406 40.8921 6.10406 34.0906C6.10406 27.2892 17.7459 21.7755 32.1069 21.7755C46.4678 21.7755 58.1097 27.2892 58.1097 34.0906Z" fill="#836FFD"/>
<path d="M58.1097 33.3662C58.1097 40.1677 46.4678 45.6813 32.1069 45.6813C17.7459 45.6813 6.10406 40.1677 6.10406 33.3662C6.10406 26.5648 17.7459 21.0511 32.1069 21.0511C46.4678 21.0511 58.1097 26.5648 58.1097 33.3662Z" fill="#836FFD"/>
<path d="M58.1097 32.6418C58.1097 39.4433 46.4678 44.9569 32.1069 44.9569C17.7459 44.9569 6.10406 39.4433 6.10406 32.6418C6.10406 25.8404 17.7459 20.3267 32.1069 20.3267C46.4678 20.3267 58.1097 25.8404 58.1097 32.6418Z" fill="#836FFD"/>
<path d="M58.1097 31.9174C58.1097 38.7188 46.4678 44.2325 32.1069 44.2325C17.7459 44.2325 6.10406 38.7188 6.10406 31.9174C6.10406 25.1159 17.7459 19.6023 32.1069 19.6023C46.4678 19.6023 58.1097 25.1159 58.1097 31.9174Z" fill="#836FFD"/>
<path d="M58.1097 31.193C58.1097 37.9944 46.4678 43.5081 32.1069 43.5081C17.7459 43.5081 6.10406 37.9944 6.10406 31.193C6.10406 24.3915 17.7459 18.8778 32.1069 18.8778C46.4678 18.8778 58.1097 24.3915 58.1097 31.193Z" fill="#836FFD"/>
<path d="M58.1097 30.4685C58.1097 37.27 46.4678 42.7837 32.1069 42.7837C17.7459 42.7837 6.10406 37.27 6.10406 30.4685C6.10406 23.6671 17.7459 18.1534 32.1069 18.1534C46.4678 18.1534 58.1097 23.6671 58.1097 30.4685Z" fill="#836FFD"/>
<path d="M58.1097 29.7441C58.1097 36.5456 46.4678 42.0592 32.1069 42.0592C17.7459 42.0592 6.10406 36.5456 6.10406 29.7441C6.10406 22.9427 17.7459 17.429 32.1069 17.429C46.4678 17.429 58.1097 22.9427 58.1097 29.7441Z" fill="#836FFD"/>
<path d="M58.1097 29.0197C58.1097 35.8212 46.4678 41.3348 32.1069 41.3348C17.7459 41.3348 6.10406 35.8212 6.10406 29.0197C6.10406 22.2183 17.7459 16.7046 32.1069 16.7046C46.4678 16.7046 58.1097 22.2183 58.1097 29.0197Z" fill="#836FFD"/>
<path d="M58.1097 28.4478C58.1097 34.9334 46.4678 40.191 32.1069 40.191C17.7459 40.191 6.10406 34.9334 6.10406 28.4478C6.10406 21.9622 17.7459 16.7046 32.1069 16.7046C46.4678 16.7046 58.1097 21.9622 58.1097 28.4478Z" fill="white"/>
<path d="M37.9785 30.5691C37.9785 31.1922 37.5806 31.7191 36.785 32.1499C36.0035 32.573 34.945 32.8461 33.6094 32.9692V33.6269C33.6094 33.8346 33.4886 34 33.2471 34.1231C33.0198 34.2539 32.7143 34.3193 32.3307 34.3193C31.9612 34.3193 31.6558 34.2539 31.4142 34.1231C31.1727 34 31.0519 33.8346 31.0519 33.6269V33.0038C30.2704 32.9654 29.5103 32.8769 28.7715 32.7384C28.0468 32.6 27.4075 32.423 26.8533 32.2076C26.626 32.1307 26.4626 32.0461 26.3631 31.9538C26.2779 31.8538 26.2353 31.7307 26.2353 31.5845C26.2353 31.3922 26.3418 31.223 26.555 31.0768C26.7823 30.9306 27.038 30.8576 27.3222 30.8576C27.5922 30.8576 27.9261 30.9191 28.3239 31.0422C28.9775 31.2499 29.5955 31.4037 30.1781 31.5037C30.7748 31.5961 31.3929 31.6422 32.0323 31.6422C32.8848 31.6422 33.5384 31.5576 33.993 31.3884C34.4477 31.2114 34.675 30.9653 34.675 30.6499C34.675 30.4575 34.54 30.2998 34.2701 30.1768C34.0143 30.0537 33.6946 29.9575 33.311 29.8883C32.9274 29.819 32.3733 29.7306 31.6486 29.6229C30.5972 29.4767 29.7305 29.3306 29.0485 29.1844C28.3665 29.0382 27.7769 28.8075 27.2796 28.4921C26.7965 28.1766 26.555 27.7536 26.555 27.2228C26.555 26.5996 26.9599 26.065 27.7698 25.6188C28.5938 25.1726 29.6666 24.888 30.988 24.7649V24.1072C30.988 23.8995 31.1087 23.7341 31.3503 23.611C31.5918 23.4803 31.8973 23.4149 32.2667 23.4149C32.6503 23.4149 32.9558 23.4803 33.1832 23.611C33.4247 23.7341 33.5455 23.8995 33.5455 24.1072V24.7419C34.8242 24.8342 36.0248 25.0957 37.1473 25.5265C37.3604 25.6034 37.5096 25.6919 37.5948 25.7919C37.6943 25.8919 37.744 26.0112 37.744 26.1496C37.744 26.3419 37.6304 26.5112 37.403 26.6573C37.1899 26.8035 36.9413 26.8766 36.6571 26.8766C36.5008 26.8766 36.3516 26.865 36.2095 26.842C36.0817 26.8189 35.8969 26.7689 35.6554 26.692C35.0729 26.4919 34.5472 26.3419 34.0783 26.2419C33.6236 26.1419 33.0624 26.0919 32.3946 26.0919C31.6273 26.0919 31.0093 26.1842 30.5404 26.3689C30.0857 26.5535 29.8584 26.7997 29.8584 27.1074C29.8584 27.3228 29.9934 27.4997 30.2633 27.6382C30.5333 27.7689 30.8743 27.8728 31.2863 27.9497C31.6984 28.0266 32.2738 28.1151 33.0126 28.2151C34.0499 28.3536 34.8953 28.4959 35.5488 28.6421C36.2166 28.7805 36.785 29.0075 37.2538 29.3229C37.7369 29.6306 37.9785 30.046 37.9785 30.5691Z" fill="#5236FF"/>
<path d="M52.2381 20.3269C52.2381 27.1283 40.5962 32.642 26.2352 32.642C11.8743 32.642 0.232422 27.1283 0.232422 20.3269C0.232422 13.5254 11.8743 8.01177 26.2352 8.01177C40.5962 8.01177 52.2381 13.5254 52.2381 20.3269Z" fill="#836FFD"/>
<path d="M52.2381 19.6025C52.2381 26.4039 40.5962 31.9176 26.2352 31.9176C11.8743 31.9176 0.232422 26.4039 0.232422 19.6025C0.232422 12.801 11.8743 7.28735 26.2352 7.28735C40.5962 7.28735 52.2381 12.801 52.2381 19.6025Z" fill="#836FFD"/>
<path d="M52.2381 18.878C52.2381 25.6795 40.5962 31.1932 26.2352 31.1932C11.8743 31.1932 0.232422 25.6795 0.232422 18.878C0.232422 12.0766 11.8743 6.56293 26.2352 6.56293C40.5962 6.56293 52.2381 12.0766 52.2381 18.878Z" fill="#836FFD"/>
<path d="M52.2381 18.1536C52.2381 24.9551 40.5962 30.4687 26.2352 30.4687C11.8743 30.4687 0.232422 24.9551 0.232422 18.1536C0.232422 11.3522 11.8743 5.83851 26.2352 5.83851C40.5962 5.83851 52.2381 11.3522 52.2381 18.1536Z" fill="#836FFD"/>
<path d="M52.2381 17.4292C52.2381 24.2307 40.5962 29.7443 26.2352 29.7443C11.8743 29.7443 0.232422 24.2307 0.232422 17.4292C0.232422 10.6278 11.8743 5.11409 26.2352 5.11409C40.5962 5.11409 52.2381 10.6278 52.2381 17.4292Z" fill="#836FFD"/>
<path d="M52.2381 16.7048C52.2381 23.5062 40.5962 29.0199 26.2352 29.0199C11.8743 29.0199 0.232422 23.5062 0.232422 16.7048C0.232422 9.90334 11.8743 4.38967 26.2352 4.38967C40.5962 4.38967 52.2381 9.90334 52.2381 16.7048Z" fill="#836FFD"/>
<path d="M52.2381 15.9804C52.2381 22.7818 40.5962 28.2955 26.2352 28.2955C11.8743 28.2955 0.232422 22.7818 0.232422 15.9804C0.232422 9.17892 11.8743 3.66525 26.2352 3.66525C40.5962 3.66525 52.2381 9.17892 52.2381 15.9804Z" fill="#836FFD"/>
<path d="M52.2381 15.256C52.2381 22.0574 40.5962 27.5711 26.2352 27.5711C11.8743 27.5711 0.232422 22.0574 0.232422 15.256C0.232422 8.4545 11.8743 2.94083 26.2352 2.94083C40.5962 2.94083 52.2381 8.4545 52.2381 15.256Z" fill="#836FFD"/>
<path d="M52.2381 14.5315C52.2381 21.333 40.5962 26.8467 26.2352 26.8467C11.8743 26.8467 0.232422 21.333 0.232422 14.5315C0.232422 7.73008 11.8743 2.21642 26.2352 2.21642C40.5962 2.21642 52.2381 7.73008 52.2381 14.5315Z" fill="#836FFD"/>
<path d="M52.2381 13.8071C52.2381 20.6086 40.5962 26.1222 26.2352 26.1222C11.8743 26.1222 0.232422 20.6086 0.232422 13.8071C0.232422 7.00566 11.8743 1.492 26.2352 1.492C40.5962 1.492 52.2381 7.00566 52.2381 13.8071Z" fill="#836FFD"/>
<path d="M52.2381 13.0827C52.2381 19.8841 40.5962 25.3978 26.2352 25.3978C11.8743 25.3978 0.232422 19.8841 0.232422 13.0827C0.232422 6.28124 11.8743 0.767578 26.2352 0.767578C40.5962 0.767578 52.2381 6.28124 52.2381 13.0827Z" fill="#836FFD"/>
<path d="M52.2381 12.5108C52.2381 18.9964 40.5962 24.254 26.2352 24.254C11.8743 24.254 0.232422 18.9964 0.232422 12.5108C0.232422 6.02519 11.8743 0.767578 26.2352 0.767578C40.5962 0.767578 52.2381 6.02519 52.2381 12.5108Z" fill="white"/>
<path d="M32.1068 14.6321C32.1068 15.2552 31.709 15.7821 30.9133 16.2129C30.1319 16.636 29.0733 16.9091 27.7378 17.0322V17.6899C27.7378 17.8976 27.617 18.063 27.3754 18.1861C27.1481 18.3169 26.8426 18.3823 26.459 18.3823C26.0896 18.3823 25.7841 18.3169 25.5426 18.1861C25.301 18.063 25.1803 17.8976 25.1803 17.6899V17.0668C24.3988 17.0283 23.6386 16.9399 22.8998 16.8014C22.1752 16.6629 21.5358 16.486 20.9817 16.2706C20.7543 16.1937 20.591 16.1091 20.4915 16.0168C20.4062 15.9168 20.3636 15.7937 20.3636 15.6475C20.3636 15.4552 20.4702 15.2859 20.6833 15.1398C20.9106 14.9936 21.1664 14.9205 21.4506 14.9205C21.7205 14.9205 22.0544 14.9821 22.4522 15.1052C23.1058 15.3129 23.7239 15.4667 24.3064 15.5667C24.9032 15.659 25.5213 15.7052 26.1606 15.7052C27.0131 15.7052 27.6667 15.6206 28.1214 15.4513C28.5761 15.2744 28.8034 15.0282 28.8034 14.7128C28.8034 14.5205 28.6684 14.3628 28.3984 14.2397C28.1427 14.1167 27.823 14.0205 27.4394 13.9513C27.0558 13.882 26.5016 13.7936 25.777 13.6859C24.7256 13.5397 23.8589 13.3935 23.1769 13.2474C22.4949 13.1012 21.9052 12.8704 21.4079 12.555C20.9248 12.2396 20.6833 11.8165 20.6833 11.2857C20.6833 10.6626 21.0882 10.128 21.8981 9.68181C22.7222 9.23564 23.7949 8.95101 25.1163 8.82792V8.1702C25.1163 7.96249 25.2371 7.7971 25.4786 7.67402C25.7202 7.54324 26.0257 7.47785 26.3951 7.47785C26.7787 7.47785 27.0842 7.54324 27.3115 7.67402C27.5531 7.7971 27.6738 7.96249 27.6738 8.1702V8.80485C28.9526 8.89716 30.1532 9.15871 31.2756 9.5895C31.4888 9.66643 31.638 9.75489 31.7232 9.8549C31.8227 9.95491 31.8724 10.0741 31.8724 10.2126C31.8724 10.4049 31.7587 10.5742 31.5314 10.7203C31.3183 10.8665 31.0696 10.9396 30.7854 10.9396C30.6292 10.9396 30.48 10.928 30.3379 10.905C30.21 10.8819 30.0253 10.8319 29.7838 10.7549C29.2012 10.5549 28.6755 10.4049 28.2066 10.3049C27.752 10.2049 27.1907 10.1549 26.5229 10.1549C25.7557 10.1549 25.1376 10.2472 24.6688 10.4319C24.2141 10.6165 23.9868 10.8626 23.9868 11.1704C23.9868 11.3857 24.1217 11.5627 24.3917 11.7011C24.6616 11.8319 25.0026 11.9358 25.4147 12.0127C25.8267 12.0896 26.4022 12.1781 27.141 12.2781C28.1782 12.4166 29.0236 12.5589 29.6772 12.705C30.345 12.8435 30.9133 13.0705 31.3822 13.3859C31.8653 13.6936 32.1068 14.109 32.1068 14.6321Z" fill="#5236FF"/>
</svg>
